<svg width="106" height="18" viewBox="0 0 106 18" fill="none" xmlns="http://www.w3.org/2000/svg">
<path d="M40.1137 0.304016H34.2254V17.6897H40.1137V0.304016Z" fill="#CF163E"/>
<path d="M26.9597 0.241986L15.0093 7.53878C14.8418 7.64426 14.6246 7.64426 14.4571 7.53878L2.50672 0.241986C2.25233 0.0868666 1.9545 0 1.65047 0H1.63806C0.732161 0 0 0.732161 0 1.63806V17.3671H5.88211V9.88418C5.88211 9.42503 6.38469 9.13961 6.77559 9.38159L13.4705 13.4767C14.1282 13.88 14.9597 13.8862 15.6236 13.4953L22.6908 9.35057C23.0817 9.12099 23.5781 9.40641 23.5781 9.85936V17.3671H29.4602V1.63806C29.4602 0.732161 28.728 0 27.8221 0H27.8097C27.5057 0 27.2141 0.0806618 26.9535 0.241986" fill="#CF163E"/>
<path d="M69.4623 0.304016H63.4933V8.21508C63.4933 8.66182 63.0218 8.94104 62.6309 8.73628L47.1562 0.496364C46.9204 0.372268 46.6536 0.304016 46.3868 0.304016H46.3744C45.4685 0.304016 44.7364 1.03618 44.7364 1.94207V17.6711H50.6557V9.76627C50.6557 9.32573 51.1273 9.04031 51.5182 9.24507L67.0487 17.485C67.2844 17.6091 67.5513 17.6773 67.8181 17.6773C68.7239 17.6773 69.4561 16.9452 69.4561 16.0393V0.304016H69.4623Z" fill="#CF163E"/>
<path d="M76.8024 0.304016H74.0909V17.6897H76.8024V0.304016Z" fill="#CF163E"/>
<path d="M92.7424 18C85.4581 18 80.2895 14.544 80.2895 9.0031C80.2895 3.46225 85.4829 0 92.7424 0C100.002 0 105.226 3.45605 105.226 8.9969C105.226 14.5377 100.12 17.9938 92.7424 17.9938M92.7424 2.30196C87.3257 2.30196 83.1499 4.66598 83.1499 8.9969C83.1499 13.3278 87.3257 15.6918 92.7424 15.6918C98.1592 15.6918 102.366 13.3588 102.366 8.9969C102.366 4.63495 98.1654 2.30196 92.7424 2.30196Z" fill="#CF163E"/>
</svg>
